<svg xmlns="http://www.w3.org/2000/svg" width="1286" height="1324" viewBox="0 0 1286 1324">
<rect width="100%" height="100%" rx="10" fill="#111827"/>
<text x="24" y="50" font-family="Menlo, Consolas, monospace" font-size="15" fill="#e5e7eb">
<tspan x="24" y="50">============ Сценарий 1. TypedCollection[Book] и проверка типа ============</tspan>
<tspan x="24" y="72">- Книга: «Война и мир» — Лев Толстой (1869), 1,225 стр., 450.00 RUB, статус: доступна</tspan>
<tspan x="24" y="94">- Книга: «Преступление и наказание» — Фёдор Достоевский (1866), 672 стр., 350.00 RUB, статус: доступна</tspan>
<tspan x="24" y="116">- Книга: «Чистый код» — Роберт Мартин (2008), 464 стр., 1,300.00 RUB, статус: доступна</tspan>
<tspan x="24" y="138">Проверка типа при добавлении: Можно добавлять только объекты типа Book.</tspan>
<tspan x="24" y="160"></tspan>
<tspan x="24" y="182">============ Сценарий 2. Методы коллекции из ЛР-2 с типами ============</tspan>
<tspan x="24" y="204"></tspan>
<tspan x="24" y="226">Поиск по названию &#x27;код&#x27;:</tspan>
<tspan x="24" y="248">- Книга: «Чистый код» — Роберт Мартин (2008), 464 стр., 1,300.00 RUB, статус: доступна</tspan>
<tspan x="24" y="270"></tspan>
<tspan x="24" y="292">Поиск по автору &#x27;достоевский&#x27;:</tspan>
<tspan x="24" y="314">- Книга: «Преступление и наказание» — Фёдор Достоевский (1866), 672 стр., 350.00 RUB, статус: доступна</tspan>
<tspan x="24" y="336"></tspan>
<tspan x="24" y="358">Доступные книги:</tspan>
<tspan x="24" y="380">- Книга: «Война и мир» — Лев Толстой (1869), 1,225 стр., 450.00 RUB, статус: доступна</tspan>
<tspan x="24" y="402">- Книга: «Преступление и наказание» — Фёдор Достоевский (1866), 672 стр., 350.00 RUB, статус: доступна</tspan>
<tspan x="24" y="424">- Книга: «Чистый код» — Роберт Мартин (2008), 464 стр., 1,300.00 RUB, статус: доступна</tspan>
<tspan x="24" y="446"></tspan>
<tspan x="24" y="468">Дорогие книги от 500 RUB:</tspan>
<tspan x="24" y="490">- Книга: «Чистый код» — Роберт Мартин (2008), 464 стр., 1,300.00 RUB, статус: доступна</tspan>
<tspan x="24" y="512"></tspan>
<tspan x="24" y="534">После sort_by_price():</tspan>
<tspan x="24" y="556">- Книга: «Преступление и наказание» — Фёдор Достоевский (1866), 672 стр., 350.00 RUB, статус: доступна</tspan>
<tspan x="24" y="578">- Книга: «Война и мир» — Лев Толстой (1869), 1,225 стр., 450.00 RUB, статус: доступна</tspan>
<tspan x="24" y="600">- Книга: «Чистый код» — Роберт Мартин (2008), 464 стр., 1,300.00 RUB, статус: доступна</tspan>
<tspan x="24" y="622"></tspan>
<tspan x="24" y="644">============ Сценарий 3. find/filter/map ============</tspan>
<tspan x="24" y="666">find(price &lt; 500): Книга: «Преступление и наказание» — Фёдор Достоевский (1866), 672 стр., 350.00 RUB, статус: доступна</tspan>
<tspan x="24" y="688">find(price &gt; 3000): None</tspan>
<tspan x="24" y="710"></tspan>
<tspan x="24" y="732">filter(year &gt;= 1900):</tspan>
<tspan x="24" y="754">- Книга: «Чистый код» — Роберт Мартин (2008), 464 стр., 1,300.00 RUB, статус: доступна</tspan>
<tspan x="24" y="776"></tspan>
<tspan x="24" y="798">map -&gt; list[str]:</tspan>
<tspan x="24" y="820">- Преступление и наказание</tspan>
<tspan x="24" y="842">- Война и мир</tspan>
<tspan x="24" y="864">- Чистый код</tspan>
<tspan x="24" y="886"></tspan>
<tspan x="24" y="908">map -&gt; list[float]:</tspan>
<tspan x="24" y="930">- 350.0</tspan>
<tspan x="24" y="952">- 450.0</tspan>
<tspan x="24" y="974">- 1300.0</tspan>
<tspan x="24" y="996"></tspan>
<tspan x="24" y="1018">============ Сценарий 4. Protocol Displayable без наследования ============</tspan>
<tspan x="24" y="1040"></tspan>
<tspan x="24" y="1062">display_all():</tspan>
<tspan x="24" y="1084">- Книга: «Война и мир» — Лев Толстой (1869), 1,225 стр., 450.00 RUB, статус: доступна, обложка: твёрдая, полка: A-01</tspan>
<tspan x="24" y="1106">- Книга: «Чистый код» — Роберт Мартин (2008), 464 стр., 1,300.00 RUB, статус: доступна, формат: PDF, размер: 8.6 МБ</tspan>
<tspan x="24" y="1128">- Книга: «Мастер и Маргарита» — Михаил Булгаков (1967), 480 стр., 650.00 RUB, статус: доступна, диктор: Сергей Чонишвили, длительность: 780 мин.</tspan>
<tspan x="24" y="1150"></tspan>
<tspan x="24" y="1172">============ Сценарий 5. Protocol Scorable с тем же TypedCollection ============</tspan>
<tspan x="24" y="1194"></tspan>
<tspan x="24" y="1216">score_all():</tspan>
<tspan x="24" y="1238">- 2.04</tspan>
<tspan x="24" y="1260">- 2.48</tspan>
<tspan x="24" y="1282">- 2.54</tspan>
<tspan x="24" y="1304">find(score &gt; 2): Книга: «Война и мир» — Лев Толстой (1869), 1,225 стр., 450.00 RUB, статус: доступна, обложка: твёрдая, полка: A-01</tspan>
</text>
</svg>